<?xml version="1.0" encoding="UTF-8"?>
<svg xmlns="http://www.w3.org/2000/svg" viewBox="0 0 1920 1080" width="1920" height="1080">
<defs><radialGradient id="glow" cx="0.5" cy="0.5" r="0.5"><stop offset="0" stop-color="#ffd48a" stop-opacity="0.55"/><stop offset="0.55" stop-color="#ffb35c" stop-opacity="0.16"/><stop offset="1" stop-color="#ffb35c" stop-opacity="0"/></radialGradient><radialGradient id="chalkDust" cx="0.4" cy="0.3" r="0.8"><stop offset="0" stop-color="#ffffff" stop-opacity="0.12"/><stop offset="1" stop-color="#ffffff" stop-opacity="0"/></radialGradient><linearGradient id="sky" x1="0" y1="0" x2="0" y2="1"><stop offset="0" stop-color="#ffe7c2"/><stop offset="0.6" stop-color="#f9c38a"/><stop offset="1" stop-color="#e9936a"/></linearGradient><linearGradient id="vignette" x1="0" y1="0" x2="0" y2="1"><stop offset="0" stop-color="#000" stop-opacity="0"/><stop offset="1" stop-color="#000" stop-opacity="0.4"/></linearGradient><linearGradient id="wallB" x1="0" y1="0" x2="0" y2="1"><stop offset="0" stop-color="#3a241a"/><stop offset="1" stop-color="#22140e"/></linearGradient><pattern id="brickB" width="120" height="48" patternUnits="userSpaceOnUse"><rect width="120" height="48" fill="#4a2a1f"/><rect x="2" y="2" width="56" height="20" rx="2" fill="#8b4a36"/><rect x="62" y="2" width="56" height="20" rx="2" fill="#7d4231"/><rect x="-28" y="26" width="56" height="20" rx="2" fill="#7d4231"/><rect x="32" y="26" width="56" height="20" rx="2" fill="#8b4a36"/><rect x="92" y="26" width="56" height="20" rx="2" fill="#7d4231"/></pattern></defs>

<rect width="1920" height="1080" fill="url(#wallB)"/><rect width="1920" height="720" fill="url(#brickB)" opacity=".5"/>
<!-- neon cup -->
<g transform="translate(1380 120)" fill="none" stroke="#ffb35c" stroke-width="10" stroke-linecap="round"><ellipse cx="0" cy="0" rx="200" ry="150" fill="url(#glow)" stroke="none"/><path d="M-80 -30 h140 q-6 90 -70 100 q-64 -10 -70 -100Z"/><path d="M60 -10 q40 6 30 40 q-8 24 -42 20"/><path d="M-40 -70 q-10 -16 0 -30 M0 -70 q-10 -16 0 -30 M40 -70 q-10 -16 0 -30" stroke="#ffd48a"/></g>
<rect x="184" y="245.3163150139153" width="46" height="84.6836849860847" rx="9" fill="#cfe6ec" opacity=".55"/><rect x="187" y="279.1897890083492" width="40" height="47.81021099165082" rx="6" fill="#3d2519"/><rect x="182" y="237.3163150139153" width="50" height="10" rx="4" fill="#8a5a3b"/><path d="M246 300 h40 l-6 30 h-28Z" fill="#c8643c"/><circle cx="266" cy="280" r="22" fill="#5f7a45"/><circle cx="254" cy="290" r="14" fill="#44603a"/><path d="M312 292 h44 l-6 38 h-32Z" fill="#f7ecd9"/><path d="M356 300 q18 6 0 20" fill="none" stroke="#f7ecd9" stroke-width="6"/><rect x="382" y="242.10155628388748" width="46" height="87.89844371611252" rx="9" fill="#cfe6ec" opacity=".55"/><rect x="385" y="277.2609337703325" width="40" height="49.739066229667515" rx="6" fill="#6b4430"/><rect x="380" y="234.10155628388748" width="50" height="10" rx="4" fill="#8a5a3b"/><rect x="444" y="246" width="56" height="84" rx="8" fill="#f0c96b"/><rect x="452" y="270" width="40" height="30" rx="4" fill="#f7ecd9" opacity=".9"/><rect x="518" y="246" width="56" height="84" rx="8" fill="#f0c96b"/><rect x="526" y="270" width="40" height="30" rx="4" fill="#f7ecd9" opacity=".9"/><path d="M592 292 h44 l-6 38 h-32Z" fill="#f7ecd9"/><path d="M636 300 q18 6 0 20" fill="none" stroke="#f7ecd9" stroke-width="6"/><rect x="662" y="246" width="56" height="84" rx="8" fill="#8a9a5b"/><rect x="670" y="270" width="40" height="30" rx="4" fill="#f7ecd9" opacity=".9"/><path d="M736 292 h44 l-6 38 h-32Z" fill="#f7ecd9"/><path d="M780 300 q18 6 0 20" fill="none" stroke="#f7ecd9" stroke-width="6"/><rect x="806" y="246" width="56" height="84" rx="8" fill="#8a9a5b"/><rect x="814" y="270" width="40" height="30" rx="4" fill="#f7ecd9" opacity=".9"/><rect x="160" y="330" width="760" height="16" rx="4" fill="#8a5a3b"/><rect x="160" y="344" width="760" height="6" fill="#00000030"/><rect x="184" y="432.662959555164" width="46" height="87.33704044483602" rx="9" fill="#cfe6ec" opacity=".55"/><rect x="187" y="467.5977757330984" width="40" height="49.40222426690161" rx="6" fill="#6b4430"/><rect x="182" y="424.662959555164" width="50" height="10" rx="4" fill="#8a5a3b"/><path d="M246 482 h44 l-6 38 h-32Z" fill="#f7ecd9"/><path d="M290 490 q18 6 0 20" fill="none" stroke="#f7ecd9" stroke-width="6"/><path d="M316 482 h44 l-6 38 h-32Z" fill="#f7ecd9"/><path d="M360 490 q18 6 0 20" fill="none" stroke="#f7ecd9" stroke-width="6"/><rect x="386" y="456.9282246637158" width="46" height="63.07177533628419" rx="9" fill="#cfe6ec" opacity=".55"/><rect x="389" y="482.1569347982295" width="40" height="34.843065201770514" rx="6" fill="#6b4430"/><rect x="384" y="448.9282246637158" width="50" height="10" rx="4" fill="#8a5a3b"/><rect x="448" y="436" width="56" height="84" rx="8" fill="#8a9a5b"/><rect x="456" y="460" width="40" height="30" rx="4" fill="#f7ecd9" opacity=".9"/><path d="M522 490 h40 l-6 30 h-28Z" fill="#c8643c"/><circle cx="542" cy="470" r="22" fill="#5f7a45"/><circle cx="530" cy="480" r="14" fill="#44603a"/><rect x="588" y="454.0800628089346" width="46" height="65.9199371910654" rx="9" fill="#cfe6ec" opacity=".55"/><rect x="591" y="480.44803768536076" width="40" height="36.55196231463924" rx="6" fill="#6b4430"/><rect x="586" y="446.0800628089346" width="50" height="10" rx="4" fill="#8a5a3b"/><rect x="650" y="432.8660567710176" width="46" height="87.13394322898239" rx="9" fill="#cfe6ec" opacity=".55"/><rect x="653" y="467.71963406261057" width="40" height="49.28036593738943" rx="6" fill="#b98a62"/><rect x="648" y="424.8660567710176" width="50" height="10" rx="4" fill="#8a5a3b"/><rect x="712" y="436" width="56" height="84" rx="8" fill="#f0c96b"/><rect x="720" y="460" width="40" height="30" rx="4" fill="#f7ecd9" opacity=".9"/><rect x="786" y="436" width="56" height="84" rx="8" fill="#f0c96b"/><rect x="794" y="460" width="40" height="30" rx="4" fill="#f7ecd9" opacity=".9"/><rect x="160" y="520" width="760" height="16" rx="4" fill="#8a5a3b"/><rect x="160" y="534" width="760" height="6" fill="#00000030"/>
<g transform="translate(980 410)"><path d="M0 0 h72 l6 110 h-84Z" fill="#c8643c"/><rect x="10" y="30" width="52" height="40" rx="6" fill="#00000026"/><rect x="-4" y="-10" width="80" height="14" rx="4" fill="#00000030"/></g><g transform="translate(1072 410)"><path d="M0 0 h72 l6 110 h-84Z" fill="#8a9a5b"/><rect x="10" y="30" width="52" height="40" rx="6" fill="#00000026"/><rect x="-4" y="-10" width="80" height="14" rx="4" fill="#00000030"/></g><g transform="translate(1164 410)"><path d="M0 0 h72 l6 110 h-84Z" fill="#f7ecd9"/><rect x="10" y="30" width="52" height="40" rx="6" fill="#00000026"/><rect x="-4" y="-10" width="80" height="14" rx="4" fill="#00000030"/></g><g transform="translate(1256 410)"><path d="M0 0 h72 l6 110 h-84Z" fill="#f0c96b"/><rect x="10" y="30" width="52" height="40" rx="6" fill="#00000026"/><rect x="-4" y="-10" width="80" height="14" rx="4" fill="#00000030"/></g><g transform="translate(1348 410)"><path d="M0 0 h72 l6 110 h-84Z" fill="#8a5a3b"/><rect x="10" y="30" width="52" height="40" rx="6" fill="#00000026"/><rect x="-4" y="-10" width="80" height="14" rx="4" fill="#00000030"/></g><g transform="translate(1440 410)"><path d="M0 0 h72 l6 110 h-84Z" fill="#c8643c"/><rect x="10" y="30" width="52" height="40" rx="6" fill="#00000026"/><rect x="-4" y="-10" width="80" height="14" rx="4" fill="#00000030"/></g><rect x="960" y="520" width="620" height="16" rx="4" fill="#8a5a3b"/>
<line x1="300" y1="0" x2="300" y2="150" stroke="#1b1210" stroke-width="2.4000000000000004"/>
<ellipse cx="300" cy="182" rx="168" ry="120" fill="url(#glow)"/>
<path d="M244 206 Q250.4 150 300 150 Q349.6 150 356 206Z" fill="#c8643c"/>
<ellipse cx="300" cy="206" rx="56" ry="7.2" fill="#f0c96b"/>
<ellipse cx="300" cy="210.8" rx="27.200000000000003" ry="9.600000000000001" fill="#fff3c9"/><line x1="1560" y1="0" x2="1560" y2="250" stroke="#1b1210" stroke-width="2.7"/>
<ellipse cx="1560" cy="286" rx="189" ry="135" fill="url(#glow)"/>
<path d="M1497 313 Q1504.2 250 1560 250 Q1615.8 250 1623 313Z" fill="#c8643c"/>
<ellipse cx="1560" cy="313" rx="63" ry="8.1" fill="#f0c96b"/>
<ellipse cx="1560" cy="318.4" rx="30.6" ry="10.8" fill="#fff3c9"/>
<rect x="0" y="720" width="1920" height="56" fill="#b27a52"/><rect x="0" y="720" width="1920" height="10" fill="#d8a47a"/>
<rect x="0" y="776" width="1920" height="304" fill="#5d3b2a"/><rect x="0" y="776" width="14" height="304" fill="#00000026"/><rect x="14" y="776" width="3" height="304" fill="#ffffff1c"/><rect x="28" y="776" width="14" height="304" fill="#00000026"/><rect x="42" y="776" width="3" height="304" fill="#ffffff1c"/><rect x="56" y="776" width="14" height="304" fill="#00000026"/><rect x="70" y="776" width="3" height="304" fill="#ffffff1c"/><rect x="84" y="776" width="14" height="304" fill="#00000026"/><rect x="98" y="776" width="3" height="304" fill="#ffffff1c"/><rect x="112" y="776" width="14" height="304" fill="#00000026"/><rect x="126" y="776" width="3" height="304" fill="#ffffff1c"/><rect x="140" y="776" width="14" height="304" fill="#00000026"/><rect x="154" y="776" width="3" height="304" fill="#ffffff1c"/><rect x="168" y="776" width="14" height="304" fill="#00000026"/><rect x="182" y="776" width="3" height="304" fill="#ffffff1c"/><rect x="196" y="776" width="14" height="304" fill="#00000026"/><rect x="210" y="776" width="3" height="304" fill="#ffffff1c"/><rect x="224" y="776" width="14" height="304" fill="#00000026"/><rect x="238" y="776" width="3" height="304" fill="#ffffff1c"/><rect x="252" y="776" width="14" height="304" fill="#00000026"/><rect x="266" y="776" width="3" height="304" fill="#ffffff1c"/><rect x="280" y="776" width="14" height="304" fill="#00000026"/><rect x="294" y="776" width="3" height="304" fill="#ffffff1c"/><rect x="308" y="776" width="14" height="304" fill="#00000026"/><rect x="322" y="776" width="3" height="304" fill="#ffffff1c"/><rect x="336" y="776" width="14" height="304" fill="#00000026"/><rect x="350" y="776" width="3" height="304" fill="#ffffff1c"/><rect x="364" y="776" width="14" height="304" fill="#00000026"/><rect x="378" y="776" width="3" height="304" fill="#ffffff1c"/><rect x="392" y="776" width="14" height="304" fill="#00000026"/><rect x="406" y="776" width="3" height="304" fill="#ffffff1c"/><rect x="420" y="776" width="14" height="304" fill="#00000026"/><rect x="434" y="776" width="3" height="304" fill="#ffffff1c"/><rect x="448" y="776" width="14" height="304" fill="#00000026"/><rect x="462" y="776" width="3" height="304" fill="#ffffff1c"/><rect x="476" y="776" width="14" height="304" fill="#00000026"/><rect x="490" y="776" width="3" height="304" fill="#ffffff1c"/><rect x="504" y="776" width="14" height="304" fill="#00000026"/><rect x="518" y="776" width="3" height="304" fill="#ffffff1c"/><rect x="532" y="776" width="14" height="304" fill="#00000026"/><rect x="546" y="776" width="3" height="304" fill="#ffffff1c"/><rect x="560" y="776" width="14" height="304" fill="#00000026"/><rect x="574" y="776" width="3" height="304" fill="#ffffff1c"/><rect x="588" y="776" width="14" height="304" fill="#00000026"/><rect x="602" y="776" width="3" height="304" fill="#ffffff1c"/><rect x="616" y="776" width="14" height="304" fill="#00000026"/><rect x="630" y="776" width="3" height="304" fill="#ffffff1c"/><rect x="644" y="776" width="14" height="304" fill="#00000026"/><rect x="658" y="776" width="3" height="304" fill="#ffffff1c"/><rect x="672" y="776" width="14" height="304" fill="#00000026"/><rect x="686" y="776" width="3" height="304" fill="#ffffff1c"/><rect x="700" y="776" width="14" height="304" fill="#00000026"/><rect x="714" y="776" width="3" height="304" fill="#ffffff1c"/><rect x="728" y="776" width="14" height="304" fill="#00000026"/><rect x="742" y="776" width="3" height="304" fill="#ffffff1c"/><rect x="756" y="776" width="14" height="304" fill="#00000026"/><rect x="770" y="776" width="3" height="304" fill="#ffffff1c"/><rect x="784" y="776" width="14" height="304" fill="#00000026"/><rect x="798" y="776" width="3" height="304" fill="#ffffff1c"/><rect x="812" y="776" width="14" height="304" fill="#00000026"/><rect x="826" y="776" width="3" height="304" fill="#ffffff1c"/><rect x="840" y="776" width="14" height="304" fill="#00000026"/><rect x="854" y="776" width="3" height="304" fill="#ffffff1c"/><rect x="868" y="776" width="14" height="304" fill="#00000026"/><rect x="882" y="776" width="3" height="304" fill="#ffffff1c"/><rect x="896" y="776" width="14" height="304" fill="#00000026"/><rect x="910" y="776" width="3" height="304" fill="#ffffff1c"/><rect x="924" y="776" width="14" height="304" fill="#00000026"/><rect x="938" y="776" width="3" height="304" fill="#ffffff1c"/><rect x="952" y="776" width="14" height="304" fill="#00000026"/><rect x="966" y="776" width="3" height="304" fill="#ffffff1c"/><rect x="980" y="776" width="14" height="304" fill="#00000026"/><rect x="994" y="776" width="3" height="304" fill="#ffffff1c"/><rect x="1008" y="776" width="14" height="304" fill="#00000026"/><rect x="1022" y="776" width="3" height="304" fill="#ffffff1c"/><rect x="1036" y="776" width="14" height="304" fill="#00000026"/><rect x="1050" y="776" width="3" height="304" fill="#ffffff1c"/><rect x="1064" y="776" width="14" height="304" fill="#00000026"/><rect x="1078" y="776" width="3" height="304" fill="#ffffff1c"/><rect x="1092" y="776" width="14" height="304" fill="#00000026"/><rect x="1106" y="776" width="3" height="304" fill="#ffffff1c"/><rect x="1120" y="776" width="14" height="304" fill="#00000026"/><rect x="1134" y="776" width="3" height="304" fill="#ffffff1c"/><rect x="1148" y="776" width="14" height="304" fill="#00000026"/><rect x="1162" y="776" width="3" height="304" fill="#ffffff1c"/><rect x="1176" y="776" width="14" height="304" fill="#00000026"/><rect x="1190" y="776" width="3" height="304" fill="#ffffff1c"/><rect x="1204" y="776" width="14" height="304" fill="#00000026"/><rect x="1218" y="776" width="3" height="304" fill="#ffffff1c"/><rect x="1232" y="776" width="14" height="304" fill="#00000026"/><rect x="1246" y="776" width="3" height="304" fill="#ffffff1c"/><rect x="1260" y="776" width="14" height="304" fill="#00000026"/><rect x="1274" y="776" width="3" height="304" fill="#ffffff1c"/><rect x="1288" y="776" width="14" height="304" fill="#00000026"/><rect x="1302" y="776" width="3" height="304" fill="#ffffff1c"/><rect x="1316" y="776" width="14" height="304" fill="#00000026"/><rect x="1330" y="776" width="3" height="304" fill="#ffffff1c"/><rect x="1344" y="776" width="14" height="304" fill="#00000026"/><rect x="1358" y="776" width="3" height="304" fill="#ffffff1c"/><rect x="1372" y="776" width="14" height="304" fill="#00000026"/><rect x="1386" y="776" width="3" height="304" fill="#ffffff1c"/><rect x="1400" y="776" width="14" height="304" fill="#00000026"/><rect x="1414" y="776" width="3" height="304" fill="#ffffff1c"/><rect x="1428" y="776" width="14" height="304" fill="#00000026"/><rect x="1442" y="776" width="3" height="304" fill="#ffffff1c"/><rect x="1456" y="776" width="14" height="304" fill="#00000026"/><rect x="1470" y="776" width="3" height="304" fill="#ffffff1c"/><rect x="1484" y="776" width="14" height="304" fill="#00000026"/><rect x="1498" y="776" width="3" height="304" fill="#ffffff1c"/><rect x="1512" y="776" width="14" height="304" fill="#00000026"/><rect x="1526" y="776" width="3" height="304" fill="#ffffff1c"/><rect x="1540" y="776" width="14" height="304" fill="#00000026"/><rect x="1554" y="776" width="3" height="304" fill="#ffffff1c"/><rect x="1568" y="776" width="14" height="304" fill="#00000026"/><rect x="1582" y="776" width="3" height="304" fill="#ffffff1c"/><rect x="1596" y="776" width="14" height="304" fill="#00000026"/><rect x="1610" y="776" width="3" height="304" fill="#ffffff1c"/><rect x="1624" y="776" width="14" height="304" fill="#00000026"/><rect x="1638" y="776" width="3" height="304" fill="#ffffff1c"/><rect x="1652" y="776" width="14" height="304" fill="#00000026"/><rect x="1666" y="776" width="3" height="304" fill="#ffffff1c"/><rect x="1680" y="776" width="14" height="304" fill="#00000026"/><rect x="1694" y="776" width="3" height="304" fill="#ffffff1c"/><rect x="1708" y="776" width="14" height="304" fill="#00000026"/><rect x="1722" y="776" width="3" height="304" fill="#ffffff1c"/><rect x="1736" y="776" width="14" height="304" fill="#00000026"/><rect x="1750" y="776" width="3" height="304" fill="#ffffff1c"/><rect x="1764" y="776" width="14" height="304" fill="#00000026"/><rect x="1778" y="776" width="3" height="304" fill="#ffffff1c"/><rect x="1792" y="776" width="14" height="304" fill="#00000026"/><rect x="1806" y="776" width="3" height="304" fill="#ffffff1c"/><rect x="1820" y="776" width="14" height="304" fill="#00000026"/><rect x="1834" y="776" width="3" height="304" fill="#ffffff1c"/><rect x="1848" y="776" width="14" height="304" fill="#00000026"/><rect x="1862" y="776" width="3" height="304" fill="#ffffff1c"/><rect x="1876" y="776" width="14" height="304" fill="#00000026"/><rect x="1890" y="776" width="3" height="304" fill="#ffffff1c"/><rect x="1904" y="776" width="14" height="304" fill="#00000026"/><rect x="1918" y="776" width="3" height="304" fill="#ffffff1c"/>
<g transform="translate(1200 516) scale(1)">
<rect x="0" y="0" width="330" height="190" rx="22" fill="#c9ccd0"/>
<rect x="0" y="0" width="330" height="60" rx="22" fill="#e3e5e8"/>
<rect x="0" y="40" width="330" height="22" fill="#b4b8bd"/>
<rect x="24" y="82" width="282" height="100" rx="14" fill="#8b9096"/>
<circle cx="64" cy="26" r="13" fill="#c8643c"/><circle cx="104" cy="26" r="13" fill="#f0c96b"/>
<rect x="250" y="16" width="56" height="20" rx="10" fill="#2b2f33"/>
<rect x="88" y="104" width="46" height="26" rx="8" fill="#2b2f33"/><rect x="196" y="104" width="46" height="26" rx="8" fill="#2b2f33"/>
<rect x="102" y="130" width="18" height="20" fill="#2b2f33"/><rect x="210" y="130" width="18" height="20" fill="#2b2f33"/>
<path d="M82 182 h60 v-30 h-60Z M188 182 h60 v-30 h-60Z" fill="#f7ecd9"/>
<rect x="-6" y="188" width="342" height="16" rx="6" fill="#6f747a"/>
<rect x="46" y="-34" width="250" height="36" rx="10" fill="#d6d8db"/>
<g fill="#f7ecd9"><path d="M70 -34 h40 l-5 -26 h-30Z"/><path d="M130 -34 h40 l-5 -26 h-30Z"/><path d="M190 -34 h40 l-5 -26 h-30Z"/></g>
</g>
<g transform="translate(260 540)"><rect x="0" y="0" width="120" height="180" rx="16" fill="#2b2f33"/><rect x="14" y="14" width="92" height="40" rx="8" fill="#5b6066"/><path d="M20 -40 h80 l-12 40 h-56Z" fill="#cfe6ec" opacity=".6"/><circle cx="60" cy="100" r="22" fill="#c8643c"/></g>
<g transform="translate(440 560)"><path d="M0 160 h130 l10 -70 h-150Z" fill="#b9bdc2"/><path d="M60 90 q-20 -60 30 -70 q30 -4 20 20" fill="none" stroke="#b9bdc2" stroke-width="14" stroke-linecap="round"/><path d="M-14 100 q-40 -10 -50 20" fill="none" stroke="#8b9096" stroke-width="12" stroke-linecap="round"/></g>
<circle cx="499" cy="568" r="32" fill="#fff3c9" opacity="0.13"/><circle cx="446" cy="446" r="30" fill="#ffb877" opacity="0.14"/><circle cx="910" cy="358" r="18" fill="#fff3c9" opacity="0.31"/><circle cx="1817" cy="35" r="19" fill="#ffb877" opacity="0.27"/><circle cx="1308" cy="612" r="21" fill="#ffb877" opacity="0.15"/><circle cx="415" cy="380" r="25" fill="#fff3c9" opacity="0.28"/><circle cx="359" cy="339" r="15" fill="#ffd9a0" opacity="0.17"/><circle cx="1753" cy="602" r="22" fill="#fff3c9" opacity="0.22"/><circle cx="1743" cy="247" r="38" fill="#fff3c9" opacity="0.30"/><circle cx="211" cy="218" r="36" fill="#ffd9a0" opacity="0.14"/>
<rect width="1920" height="1080" fill="url(#vignette)" opacity=".45"/>
</svg>
