<?xml version="1.0" encoding="UTF-8"?>
<svg xmlns="http://www.w3.org/2000/svg" viewBox="0 0 1920 1080" width="1920" height="1080">
<defs><radialGradient id="glow" cx="0.5" cy="0.5" r="0.5"><stop offset="0" stop-color="#ffd48a" stop-opacity="0.55"/><stop offset="0.55" stop-color="#ffb35c" stop-opacity="0.16"/><stop offset="1" stop-color="#ffb35c" stop-opacity="0"/></radialGradient><radialGradient id="chalkDust" cx="0.4" cy="0.3" r="0.8"><stop offset="0" stop-color="#ffffff" stop-opacity="0.12"/><stop offset="1" stop-color="#ffffff" stop-opacity="0"/></radialGradient><linearGradient id="sky" x1="0" y1="0" x2="0" y2="1"><stop offset="0" stop-color="#ffe7c2"/><stop offset="0.6" stop-color="#f9c38a"/><stop offset="1" stop-color="#e9936a"/></linearGradient><linearGradient id="vignette" x1="0" y1="0" x2="0" y2="1"><stop offset="0" stop-color="#000" stop-opacity="0"/><stop offset="1" stop-color="#000" stop-opacity="0.4"/></linearGradient><linearGradient id="wallC" x1="0" y1="0" x2="0" y2="1"><stop offset="0" stop-color="#80553a"/><stop offset="1" stop-color="#4a2d1f"/></linearGradient><pattern id="tile" width="84" height="42" patternUnits="userSpaceOnUse"><rect width="84" height="42" fill="#cdb594"/><rect x="2" y="2" width="38" height="18" rx="3" fill="#efe0c6"/><rect x="44" y="2" width="38" height="18" rx="3" fill="#efe0c6"/><rect x="23" y="23" width="38" height="17" rx="3" fill="#efe0c6"/><rect x="-19" y="23" width="38" height="17" rx="3" fill="#efe0c6"/><rect x="65" y="23" width="38" height="17" rx="3" fill="#efe0c6"/></pattern></defs>

<rect width="1920" height="1080" fill="url(#wallC)"/>
<rect x="0" y="430" width="1920" height="290" fill="url(#tile)"/><rect x="0" y="424" width="1920" height="14" fill="#8a5a3b"/>
<clipPath id="win5"><path d="M110 710 V280 A210 210 0 0 1 530 280 V710Z"/></clipPath>
<path d="M110 710 V280 A210 210 0 0 1 530 280 V710Z" fill="#2b1a12" transform="translate(0 0)" stroke="#2b1a12" stroke-width="26"/>
<g clip-path="url(#win5)"><rect x="110" y="70" width="420" height="640" fill="url(#sky)"/><circle cx="209.96240869164467" cy="632.8406914994121" r="39.18145559635013" fill="#587a42" opacity=".85"/><circle cx="468.23846547398716" cy="628.3256939947605" r="44.5766438418068" fill="#6f8b4e" opacity=".85"/><circle cx="319.5426584687084" cy="485.5905202999711" r="30.362273391336203" fill="#587a42" opacity=".85"/><circle cx="474.99680587556213" cy="440.82187564671045" r="35.43481657234952" fill="#6f8b4e" opacity=".85"/><circle cx="319.2167623899877" cy="607.5307951197028" r="34.82560131046921" fill="#587a42" opacity=".85"/><circle cx="464.9952807696536" cy="558.3691357374191" r="45.83313046069816" fill="#6f8b4e" opacity=".85"/><circle cx="478.3146206010133" cy="444.63162303715944" r="73.09333744458854" fill="#587a42" opacity=".85"/><circle cx="259.4568218989298" cy="638.4250500649215" r="55.86304484074935" fill="#6f8b4e" opacity=".85"/><circle cx="361.75051148980856" cy="558.6533409282565" r="73.08897356968373" fill="#587a42" opacity=".85"/><circle cx="297.99751991871744" cy="566.6797154843807" r="38.12706211814657" fill="#6f8b4e" opacity=".85"/><circle cx="228.06870783679187" cy="651.7558294311166" r="36.62043282389641" fill="#587a42" opacity=".85"/><circle cx="281.7007744824514" cy="703.6872806698084" r="38.99599476857111" fill="#6f8b4e" opacity=".85"/><circle cx="484.81605829671025" cy="503.31534644216305" r="49.566368077881634" fill="#587a42" opacity=".85"/><circle cx="234.9405287997797" cy="677.667887032032" r="52.54125064658001" fill="#6f8b4e" opacity=".85"/><circle cx="275.18440530635417" cy="594.3824738934636" r="32.6870635766536" fill="#587a42" opacity=".85"/><circle cx="177.19138163607568" cy="445.0854885429144" r="34.51738074561581" fill="#6f8b4e" opacity=".85"/>
<rect x="110" y="620.4" width="420" height="89.60000000000001" fill="#7d5c3c" opacity=".55"/></g>
<path d="M110 710 V280 A210 210 0 0 1 530 280 V710Z" fill="none" stroke="#6b4430" stroke-width="10"/>
<path d="M320 70 V710 M110 390 H530" stroke="#6b4430" stroke-width="8"/>
<rect x="1234" y="84" width="572" height="322" rx="14" fill="#8a5a3b"/>
<rect x="1250" y="100" width="540" height="290" rx="6" fill="#26302b"/>
<rect x="1250" y="100" width="540" height="290" rx="6" fill="url(#chalkDust)" opacity=".5"/>
<path d="M1460 160 q60 -70 120 0" fill="none" stroke="#f0c96b" stroke-width="8" stroke-linecap="round" opacity=".9"/>
<path d="M1444 176 h152" stroke="#f0c96b" stroke-width="8" stroke-linecap="round" opacity=".9"/>
<path d="M1484 138 q-10 -14 0 -26 M1520 138 q-10 -14 0 -26 M1556 138 q-10 -14 0 -26" fill="none" stroke="#f1ead8" stroke-width="5" stroke-linecap="round" opacity=".8"/>
<path d="M1279.916447557509 230 h205.78611130360517" stroke="#f1ead8" stroke-width="7" stroke-linecap="round" opacity=".78" stroke-dasharray="43.457246330566704 8 6.01419867342338 8"/><path d="M1694 230 h66" stroke="#f1ead8" stroke-width="7" stroke-linecap="round" opacity=".6"/><path d="M1281.0581895262003 276 h241.66874073911458" stroke="#f1ead8" stroke-width="7" stroke-linecap="round" opacity=".78" stroke-dasharray="20.69177662115544 8 18.39577170787379 8"/><path d="M1694 276 h66" stroke="#f1ead8" stroke-width="7" stroke-linecap="round" opacity=".6"/><path d="M1278.6897144243121 322 h206.33675834629688" stroke="#f1ead8" stroke-width="7" stroke-linecap="round" opacity=".78" stroke-dasharray="40.40768984798342 8 18.612251767423004 8"/><path d="M1694 322 h66" stroke="#f1ead8" stroke-width="7" stroke-linecap="round" opacity=".6"/>
<line x1="560" y1="0" x2="560" y2="250" stroke="#1b1210" stroke-width="3"/>
<ellipse cx="560" cy="290" rx="210" ry="150" fill="url(#glow)"/>
<path d="M490 320 Q498 250 560 250 Q622 250 630 320Z" fill="#c8643c"/>
<ellipse cx="560" cy="320" rx="70" ry="9" fill="#f0c96b"/>
<ellipse cx="560" cy="326" rx="34" ry="12" fill="#fff3c9"/><line x1="1180" y1="0" x2="1180" y2="330" stroke="#1b1210" stroke-width="2.4000000000000004"/>
<ellipse cx="1180" cy="362" rx="168" ry="120" fill="url(#glow)"/>
<path d="M1124 386 Q1130.4 330 1180 330 Q1229.6 330 1236 386Z" fill="#c8643c"/>
<ellipse cx="1180" cy="386" rx="56" ry="7.2" fill="#f0c96b"/>
<ellipse cx="1180" cy="390.8" rx="27.200000000000003" ry="9.600000000000001" fill="#fff3c9"/><line x1="1700" y1="0" x2="1700" y2="260" stroke="#1b1210" stroke-width="2.7"/>
<ellipse cx="1700" cy="296" rx="189" ry="135" fill="url(#glow)"/>
<path d="M1637 323 Q1644.2 260 1700 260 Q1755.8 260 1763 323Z" fill="#c8643c"/>
<ellipse cx="1700" cy="323" rx="63" ry="8.1" fill="#f0c96b"/>
<ellipse cx="1700" cy="328.4" rx="30.6" ry="10.8" fill="#fff3c9"/>
<rect x="1274" y="460.7585409237072" width="46" height="79.24145907629281" rx="9" fill="#cfe6ec" opacity=".55"/><rect x="1277" y="492.4551245542243" width="40" height="44.54487544577569" rx="6" fill="#b98a62"/><rect x="1272" y="452.7585409237072" width="50" height="10" rx="4" fill="#8a5a3b"/><path d="M1336 510 h40 l-6 30 h-28Z" fill="#c8643c"/><circle cx="1356" cy="490" r="22" fill="#5f7a45"/><circle cx="1344" cy="500" r="14" fill="#44603a"/><rect x="1402" y="461.62047133315355" width="46" height="78.37952866684645" rx="9" fill="#cfe6ec" opacity=".55"/><rect x="1405" y="492.9722827998921" width="40" height="44.02771720010787" rx="6" fill="#6b4430"/><rect x="1400" y="453.62047133315355" width="50" height="10" rx="4" fill="#8a5a3b"/><path d="M1464 502 h44 l-6 38 h-32Z" fill="#f7ecd9"/><path d="M1508 510 q18 6 0 20" fill="none" stroke="#f7ecd9" stroke-width="6"/><rect x="1534" y="456" width="56" height="84" rx="8" fill="#f0c96b"/><rect x="1542" y="480" width="40" height="30" rx="4" fill="#f7ecd9" opacity=".9"/><rect x="1608" y="456" width="56" height="84" rx="8" fill="#8a9a5b"/><rect x="1616" y="480" width="40" height="30" rx="4" fill="#f7ecd9" opacity=".9"/><rect x="1682" y="456" width="56" height="84" rx="8" fill="#f0c96b"/><rect x="1690" y="480" width="40" height="30" rx="4" fill="#f7ecd9" opacity=".9"/><rect x="1250" y="540" width="560" height="16" rx="4" fill="#8a5a3b"/><rect x="1250" y="554" width="560" height="6" fill="#00000030"/>
<rect x="0" y="720" width="1920" height="56" fill="#b27a52"/><rect x="0" y="720" width="1920" height="10" fill="#d8a47a"/>
<rect x="0" y="776" width="1920" height="304" fill="#7a4a2f"/><rect x="0" y="776" width="14" height="304" fill="#00000026"/><rect x="14" y="776" width="3" height="304" fill="#ffffff1c"/><rect x="28" y="776" width="14" height="304" fill="#00000026"/><rect x="42" y="776" width="3" height="304" fill="#ffffff1c"/><rect x="56" y="776" width="14" height="304" fill="#00000026"/><rect x="70" y="776" width="3" height="304" fill="#ffffff1c"/><rect x="84" y="776" width="14" height="304" fill="#00000026"/><rect x="98" y="776" width="3" height="304" fill="#ffffff1c"/><rect x="112" y="776" width="14" height="304" fill="#00000026"/><rect x="126" y="776" width="3" height="304" fill="#ffffff1c"/><rect x="140" y="776" width="14" height="304" fill="#00000026"/><rect x="154" y="776" width="3" height="304" fill="#ffffff1c"/><rect x="168" y="776" width="14" height="304" fill="#00000026"/><rect x="182" y="776" width="3" height="304" fill="#ffffff1c"/><rect x="196" y="776" width="14" height="304" fill="#00000026"/><rect x="210" y="776" width="3" height="304" fill="#ffffff1c"/><rect x="224" y="776" width="14" height="304" fill="#00000026"/><rect x="238" y="776" width="3" height="304" fill="#ffffff1c"/><rect x="252" y="776" width="14" height="304" fill="#00000026"/><rect x="266" y="776" width="3" height="304" fill="#ffffff1c"/><rect x="280" y="776" width="14" height="304" fill="#00000026"/><rect x="294" y="776" width="3" height="304" fill="#ffffff1c"/><rect x="308" y="776" width="14" height="304" fill="#00000026"/><rect x="322" y="776" width="3" height="304" fill="#ffffff1c"/><rect x="336" y="776" width="14" height="304" fill="#00000026"/><rect x="350" y="776" width="3" height="304" fill="#ffffff1c"/><rect x="364" y="776" width="14" height="304" fill="#00000026"/><rect x="378" y="776" width="3" height="304" fill="#ffffff1c"/><rect x="392" y="776" width="14" height="304" fill="#00000026"/><rect x="406" y="776" width="3" height="304" fill="#ffffff1c"/><rect x="420" y="776" width="14" height="304" fill="#00000026"/><rect x="434" y="776" width="3" height="304" fill="#ffffff1c"/><rect x="448" y="776" width="14" height="304" fill="#00000026"/><rect x="462" y="776" width="3" height="304" fill="#ffffff1c"/><rect x="476" y="776" width="14" height="304" fill="#00000026"/><rect x="490" y="776" width="3" height="304" fill="#ffffff1c"/><rect x="504" y="776" width="14" height="304" fill="#00000026"/><rect x="518" y="776" width="3" height="304" fill="#ffffff1c"/><rect x="532" y="776" width="14" height="304" fill="#00000026"/><rect x="546" y="776" width="3" height="304" fill="#ffffff1c"/><rect x="560" y="776" width="14" height="304" fill="#00000026"/><rect x="574" y="776" width="3" height="304" fill="#ffffff1c"/><rect x="588" y="776" width="14" height="304" fill="#00000026"/><rect x="602" y="776" width="3" height="304" fill="#ffffff1c"/><rect x="616" y="776" width="14" height="304" fill="#00000026"/><rect x="630" y="776" width="3" height="304" fill="#ffffff1c"/><rect x="644" y="776" width="14" height="304" fill="#00000026"/><rect x="658" y="776" width="3" height="304" fill="#ffffff1c"/><rect x="672" y="776" width="14" height="304" fill="#00000026"/><rect x="686" y="776" width="3" height="304" fill="#ffffff1c"/><rect x="700" y="776" width="14" height="304" fill="#00000026"/><rect x="714" y="776" width="3" height="304" fill="#ffffff1c"/><rect x="728" y="776" width="14" height="304" fill="#00000026"/><rect x="742" y="776" width="3" height="304" fill="#ffffff1c"/><rect x="756" y="776" width="14" height="304" fill="#00000026"/><rect x="770" y="776" width="3" height="304" fill="#ffffff1c"/><rect x="784" y="776" width="14" height="304" fill="#00000026"/><rect x="798" y="776" width="3" height="304" fill="#ffffff1c"/><rect x="812" y="776" width="14" height="304" fill="#00000026"/><rect x="826" y="776" width="3" height="304" fill="#ffffff1c"/><rect x="840" y="776" width="14" height="304" fill="#00000026"/><rect x="854" y="776" width="3" height="304" fill="#ffffff1c"/><rect x="868" y="776" width="14" height="304" fill="#00000026"/><rect x="882" y="776" width="3" height="304" fill="#ffffff1c"/><rect x="896" y="776" width="14" height="304" fill="#00000026"/><rect x="910" y="776" width="3" height="304" fill="#ffffff1c"/><rect x="924" y="776" width="14" height="304" fill="#00000026"/><rect x="938" y="776" width="3" height="304" fill="#ffffff1c"/><rect x="952" y="776" width="14" height="304" fill="#00000026"/><rect x="966" y="776" width="3" height="304" fill="#ffffff1c"/><rect x="980" y="776" width="14" height="304" fill="#00000026"/><rect x="994" y="776" width="3" height="304" fill="#ffffff1c"/><rect x="1008" y="776" width="14" height="304" fill="#00000026"/><rect x="1022" y="776" width="3" height="304" fill="#ffffff1c"/><rect x="1036" y="776" width="14" height="304" fill="#00000026"/><rect x="1050" y="776" width="3" height="304" fill="#ffffff1c"/><rect x="1064" y="776" width="14" height="304" fill="#00000026"/><rect x="1078" y="776" width="3" height="304" fill="#ffffff1c"/><rect x="1092" y="776" width="14" height="304" fill="#00000026"/><rect x="1106" y="776" width="3" height="304" fill="#ffffff1c"/><rect x="1120" y="776" width="14" height="304" fill="#00000026"/><rect x="1134" y="776" width="3" height="304" fill="#ffffff1c"/><rect x="1148" y="776" width="14" height="304" fill="#00000026"/><rect x="1162" y="776" width="3" height="304" fill="#ffffff1c"/><rect x="1176" y="776" width="14" height="304" fill="#00000026"/><rect x="1190" y="776" width="3" height="304" fill="#ffffff1c"/><rect x="1204" y="776" width="14" height="304" fill="#00000026"/><rect x="1218" y="776" width="3" height="304" fill="#ffffff1c"/><rect x="1232" y="776" width="14" height="304" fill="#00000026"/><rect x="1246" y="776" width="3" height="304" fill="#ffffff1c"/><rect x="1260" y="776" width="14" height="304" fill="#00000026"/><rect x="1274" y="776" width="3" height="304" fill="#ffffff1c"/><rect x="1288" y="776" width="14" height="304" fill="#00000026"/><rect x="1302" y="776" width="3" height="304" fill="#ffffff1c"/><rect x="1316" y="776" width="14" height="304" fill="#00000026"/><rect x="1330" y="776" width="3" height="304" fill="#ffffff1c"/><rect x="1344" y="776" width="14" height="304" fill="#00000026"/><rect x="1358" y="776" width="3" height="304" fill="#ffffff1c"/><rect x="1372" y="776" width="14" height="304" fill="#00000026"/><rect x="1386" y="776" width="3" height="304" fill="#ffffff1c"/><rect x="1400" y="776" width="14" height="304" fill="#00000026"/><rect x="1414" y="776" width="3" height="304" fill="#ffffff1c"/><rect x="1428" y="776" width="14" height="304" fill="#00000026"/><rect x="1442" y="776" width="3" height="304" fill="#ffffff1c"/><rect x="1456" y="776" width="14" height="304" fill="#00000026"/><rect x="1470" y="776" width="3" height="304" fill="#ffffff1c"/><rect x="1484" y="776" width="14" height="304" fill="#00000026"/><rect x="1498" y="776" width="3" height="304" fill="#ffffff1c"/><rect x="1512" y="776" width="14" height="304" fill="#00000026"/><rect x="1526" y="776" width="3" height="304" fill="#ffffff1c"/><rect x="1540" y="776" width="14" height="304" fill="#00000026"/><rect x="1554" y="776" width="3" height="304" fill="#ffffff1c"/><rect x="1568" y="776" width="14" height="304" fill="#00000026"/><rect x="1582" y="776" width="3" height="304" fill="#ffffff1c"/><rect x="1596" y="776" width="14" height="304" fill="#00000026"/><rect x="1610" y="776" width="3" height="304" fill="#ffffff1c"/><rect x="1624" y="776" width="14" height="304" fill="#00000026"/><rect x="1638" y="776" width="3" height="304" fill="#ffffff1c"/><rect x="1652" y="776" width="14" height="304" fill="#00000026"/><rect x="1666" y="776" width="3" height="304" fill="#ffffff1c"/><rect x="1680" y="776" width="14" height="304" fill="#00000026"/><rect x="1694" y="776" width="3" height="304" fill="#ffffff1c"/><rect x="1708" y="776" width="14" height="304" fill="#00000026"/><rect x="1722" y="776" width="3" height="304" fill="#ffffff1c"/><rect x="1736" y="776" width="14" height="304" fill="#00000026"/><rect x="1750" y="776" width="3" height="304" fill="#ffffff1c"/><rect x="1764" y="776" width="14" height="304" fill="#00000026"/><rect x="1778" y="776" width="3" height="304" fill="#ffffff1c"/><rect x="1792" y="776" width="14" height="304" fill="#00000026"/><rect x="1806" y="776" width="3" height="304" fill="#ffffff1c"/><rect x="1820" y="776" width="14" height="304" fill="#00000026"/><rect x="1834" y="776" width="3" height="304" fill="#ffffff1c"/><rect x="1848" y="776" width="14" height="304" fill="#00000026"/><rect x="1862" y="776" width="3" height="304" fill="#ffffff1c"/><rect x="1876" y="776" width="14" height="304" fill="#00000026"/><rect x="1890" y="776" width="3" height="304" fill="#ffffff1c"/><rect x="1904" y="776" width="14" height="304" fill="#00000026"/><rect x="1918" y="776" width="3" height="304" fill="#ffffff1c"/>
<rect x="0" y="776" width="1920" height="14" fill="#00000040"/>
<ellipse cx="360" cy="724" rx="140" ry="12" fill="#f7ecd9"/>
<rect x="256" y="710" width="208" height="14" fill="#e8cfae"/>
<g><ellipse cx="308" cy="690" rx="31.2" ry="18.200000000000003" fill="#d49a52"/><ellipse cx="360" cy="686" rx="31.2" ry="18.200000000000003" fill="#c98a42"/><ellipse cx="412" cy="690" rx="31.2" ry="18.200000000000003" fill="#d49a52"/></g>
<path d="M230 712 A130 143 0 0 1 490 712Z" fill="#ffffff22" stroke="#ffffff66" stroke-width="4"/>
<path d="M271.6 627.34 q26 -28.6 62.4 -28.6" fill="none" stroke="#ffffff88" stroke-width="6" stroke-linecap="round"/>
<circle cx="360" cy="567" r="12" fill="#f7ecd9"/>
<g transform="translate(1340 516) scale(1)">
<rect x="0" y="0" width="330" height="190" rx="22" fill="#c9ccd0"/>
<rect x="0" y="0" width="330" height="60" rx="22" fill="#e3e5e8"/>
<rect x="0" y="40" width="330" height="22" fill="#b4b8bd"/>
<rect x="24" y="82" width="282" height="100" rx="14" fill="#8b9096"/>
<circle cx="64" cy="26" r="13" fill="#c8643c"/><circle cx="104" cy="26" r="13" fill="#f0c96b"/>
<rect x="250" y="16" width="56" height="20" rx="10" fill="#2b2f33"/>
<rect x="88" y="104" width="46" height="26" rx="8" fill="#2b2f33"/><rect x="196" y="104" width="46" height="26" rx="8" fill="#2b2f33"/>
<rect x="102" y="130" width="18" height="20" fill="#2b2f33"/><rect x="210" y="130" width="18" height="20" fill="#2b2f33"/>
<path d="M82 182 h60 v-30 h-60Z M188 182 h60 v-30 h-60Z" fill="#f7ecd9"/>
<rect x="-6" y="188" width="342" height="16" rx="6" fill="#6f747a"/>
<rect x="46" y="-34" width="250" height="36" rx="10" fill="#d6d8db"/>
<g fill="#f7ecd9"><path d="M70 -34 h40 l-5 -26 h-30Z"/><path d="M130 -34 h40 l-5 -26 h-30Z"/><path d="M190 -34 h40 l-5 -26 h-30Z"/></g>
</g>
<g transform="translate(1000 720)"><path d="M0 0 h44 l-5 -36 h-34Z M52 0 h44 l-5 -36 h-34Z M26 -36 h44 l-5 -36 h-34Z" fill="#f7ecd9"/></g>
<g transform="translate(1800 668) rotate(-84.1795065626502)"><path d="M0 0 C 35.039893329143524 -65.02003027042373 24.527925330400464 -148.61721204668285 0 -185.77151505835354 C -24.527925330400464 -148.61721204668285 -35.039893329143524 -65.02003027042373 0 0Z" fill="#44603a"/><path d="M0 0 L0 -157.90578779960052" stroke="#ffffff22" stroke-width="2.4000000000000004"/></g><g transform="translate(1800 668) rotate(-53.16829665377736)"><path d="M0 0 C 38.154029527306555 -43.24339761603623 26.707820669114586 -98.84205169379712 0 -123.55256461724639 C -26.707820669114586 -98.84205169379712 -38.154029527306555 -43.24339761603623 0 0Z" fill="#5f7a45"/><path d="M0 0 L0 -105.01967992465943" stroke="#ffffff22" stroke-width="2.4000000000000004"/></g><g transform="translate(1800 668) rotate(-42.224237501621246)"><path d="M0 0 C 28.080435663461685 -43.338279800210145 19.656304964423178 -99.0589252576232 0 -123.823656572029 C -19.656304964423178 -99.0589252576232 -28.080435663461685 -43.338279800210145 0 0Z" fill="#44603a"/><path d="M0 0 L0 -105.25010808622464" stroke="#ffffff22" stroke-width="2.4000000000000004"/></g><g transform="translate(1800 668) rotate(-12.257007982581854)"><path d="M0 0 C 34.00001007020474 -66.51468679569662 23.800007049143314 -152.03356981873512 0 -190.0419622734189 C -23.800007049143314 -152.03356981873512 -34.00001007020474 -66.51468679569662 0 0Z" fill="#5f7a45"/><path d="M0 0 L0 -161.53566793240606" stroke="#ffffff22" stroke-width="2.4000000000000004"/></g><g transform="translate(1800 668) rotate(-0.7702780142426491)"><path d="M0 0 C 34.94446074962616 -55.80555275408551 24.46112252473831 -127.55554915219545 0 -159.44443644024432 C -24.46112252473831 -127.55554915219545 -34.94446074962616 -55.80555275408551 0 0Z" fill="#44603a"/><path d="M0 0 L0 -135.52777097420767" stroke="#ffffff22" stroke-width="2.4000000000000004"/></g><g transform="translate(1800 668) rotate(24.438676919788122)"><path d="M0 0 C 32.55139036476612 -61.651271676085884 22.785973255336284 -140.91719240248204 0 -176.14649050310254 C -22.785973255336284 -140.91719240248204 -32.55139036476612 -61.651271676085884 0 0Z" fill="#5f7a45"/><path d="M0 0 L0 -149.72451692763715" stroke="#ffffff22" stroke-width="2.4000000000000004"/></g><g transform="translate(1800 668) rotate(39.58572797477245)"><path d="M0 0 C 31.83953809142113 -63.47401570128277 22.28767666399479 -145.0834644600749 0 -181.35433057509363 C -22.28767666399479 -145.0834644600749 -31.83953809142113 -63.47401570128277 0 0Z" fill="#44603a"/><path d="M0 0 L0 -154.15118098882957" stroke="#ffffff22" stroke-width="2.4000000000000004"/></g><g transform="translate(1800 668) rotate(59.70411600545049)"><path d="M0 0 C 36.78895616233349 -44.31691955924034 25.75226931363344 -101.2958161354065 0 -126.61977016925812 C -25.75226931363344 -101.2958161354065 -36.78895616233349 -44.31691955924034 0 0Z" fill="#5f7a45"/><path d="M0 0 L0 -107.62680464386939" stroke="#ffffff22" stroke-width="2.4000000000000004"/></g><g transform="translate(1800 668) rotate(85.34722275286913)"><path d="M0 0 C 29.489268076419833 -51.02444610809907 20.64248765349388 -116.62730538994074 0 -145.78413173742592 C -20.64248765349388 -116.62730538994074 -29.489268076419833 -51.02444610809907 0 0Z" fill="#44603a"/><path d="M0 0 L0 -123.91651197681203" stroke="#ffffff22" stroke-width="2.4000000000000004"/></g><path d="M1750.4 652 h99.2 l-11.200000000000001 72 h-76.80000000000001Z" fill="#c8643c"/><rect x="1745.6" y="644" width="108.80000000000001" height="16" rx="4.800000000000001" fill="#c8643c" opacity=".85"/>
<circle cx="469" cy="128" r="18" fill="#ffd9a0" opacity="0.20"/><circle cx="622" cy="277" r="43" fill="#f0c96b" opacity="0.28"/><circle cx="624" cy="83" r="15" fill="#fff3c9" opacity="0.28"/><circle cx="581" cy="647" r="34" fill="#ffb877" opacity="0.17"/><circle cx="72" cy="253" r="28" fill="#fff3c9" opacity="0.22"/><circle cx="1043" cy="399" r="37" fill="#ffd9a0" opacity="0.14"/><circle cx="1311" cy="196" r="33" fill="#f0c96b" opacity="0.19"/><circle cx="6" cy="418" r="27" fill="#fff3c9" opacity="0.25"/><circle cx="1167" cy="537" r="23" fill="#ffb877" opacity="0.27"/><circle cx="280" cy="302" r="10" fill="#ffb877" opacity="0.31"/><circle cx="340" cy="151" r="46" fill="#fff3c9" opacity="0.26"/><circle cx="478" cy="481" r="23" fill="#ffd9a0" opacity="0.13"/><circle cx="1439" cy="407" r="15" fill="#ffb877" opacity="0.18"/><circle cx="189" cy="382" r="33" fill="#ffd9a0" opacity="0.16"/>
<rect width="1920" height="1080" fill="url(#vignette)" opacity=".35"/>
</svg>
